<?xml version="1.0" encoding="UTF-8"?>
<svg xmlns="http://www.w3.org/2000/svg" xmlns:xlink="http://www.w3.org/1999/xlink" viewBox="0 0 30 30" width="30px" height="30px">
<g id="surface156425471">
<path style=" stroke:none;fill-rule:nonzero;fill:rgb(40.000001%,40.000001%,40.000001%);fill-opacity:1;" d="M 15 0.628906 C 14.871094 0.628906 14.738281 0.671875 14.628906 0.757812 L 0.828125 11.527344 C 0.570312 11.730469 0.523438 12.109375 0.726562 12.371094 C 0.929688 12.628906 1.308594 12.675781 1.570312 12.472656 L 2.398438 11.828125 L 2.398438 27.601562 C 2.398438 27.929688 2.671875 28.199219 3 28.199219 L 11.398438 28.199219 L 11.398438 17.398438 L 18.601562 17.398438 L 18.601562 28.199219 L 27 28.199219 C 27.328125 28.199219 27.601562 27.929688 27.601562 27.601562 L 27.601562 11.828125 L 28.429688 12.472656 C 28.542969 12.558594 28.667969 12.601562 28.800781 12.601562 C 28.980469 12.601562 29.152344 12.523438 29.273438 12.371094 C 29.476562 12.109375 29.429688 11.730469 29.171875 11.527344 L 15.371094 0.757812 C 15.261719 0.671875 15.128906 0.628906 15 0.628906 Z M 21 3 L 21 3.628906 L 24.601562 6.4375 L 24.601562 3 Z M 21 3 "/>
</g>
</svg>
